<svg width="122" height="25" viewBox="0 0 122 25" fill="none" xmlns="http://www.w3.org/2000/svg">
<path d="M11.4325 9.82005H9.4965V2.18043H6.86288V7.50981H1.95554V9.8227H0V5.41357H4.72504V0.0391342C4.77629 0.0351843 4.8234 0.0307256 4.86775 0.0265286C4.9573 0.0180538 5.03558 0.0106454 5.11386 0.0106454C5.75502 0.00957371 6.3961 0.00926479 7.03715 0.00895588C8.37758 0.00830997 9.71789 0.00766411 11.0585 4.49712e-05C11.3518 -0.00194262 11.4601 0.0609976 11.4588 0.379674C11.4486 2.67436 11.4492 4.96873 11.4498 7.26323C11.45 8.00085 11.4502 8.7385 11.45 9.47619C11.45 9.54744 11.4453 9.61875 11.4401 9.6962C11.4375 9.73539 11.4348 9.77688 11.4325 9.82005Z" fill="white"/>
<path d="M15.5131 13.8655V11.9469H23.6562V7.52845H18.7481V2.17522H16.1529V9.81882H14.1866V0.0339249H20.8618V5.38782H25.6453V19.7634H20.8611V25H14.1933V15.5484H16.1266V22.8905H18.734V17.7168H23.6488V13.8649L15.5131 13.8655Z" fill="white"/>
<path d="M0.00941206 11.9495H10.0118V13.8536H1.97908V17.697H6.8353V22.8846H9.4743V15.5404H11.4218V24.9907H4.76069V19.7819H0.00941206V11.9495Z" fill="white"/>
<path d="M11.4608 13.8456H14.0641V11.3161H11.4608V13.8456Z" fill="white"/>
<path d="M122 7.9004V5.96026H119.595V7.9004H122Z" fill="white"/>
<path d="M121.801 9.78613H119.776V18.8159H121.801V9.78613Z" fill="white"/>
<path fill-rule="evenodd" clip-rule="evenodd" d="M109.362 18.417C110.049 18.8159 110.802 19.0154 111.622 19.0154C112.369 19.0154 112.996 18.8703 113.502 18.5802C114.02 18.278 114.43 17.8912 114.732 17.4197C115.045 16.9483 115.274 16.4406 115.419 15.8966V16.6763C115.419 16.9785 115.431 17.2989 115.455 17.6373C115.479 17.9637 115.503 18.2417 115.527 18.4714L115.563 18.8159H117.444V9.78613H115.419V12.4209C115.376 12.2515 115.328 12.0865 115.274 11.9257C115.033 11.2125 114.629 10.6444 114.063 10.2213C113.496 9.79822 112.731 9.58668 111.766 9.58668C110.899 9.58668 110.115 9.78613 109.416 10.185C108.717 10.5839 108.162 11.14 107.753 11.8532C107.343 12.5543 107.138 13.3763 107.138 14.3192C107.138 15.2378 107.337 16.0538 107.735 16.767C108.144 17.4681 108.687 18.0181 109.362 18.417ZM115.419 14.3192C115.419 14.8994 115.292 15.4192 115.039 15.8785C114.798 16.3379 114.436 16.7005 113.954 16.9664C113.484 17.2203 112.911 17.3472 112.236 17.3472C111.646 17.3472 111.122 17.2203 110.663 16.9664C110.205 16.7126 109.844 16.356 109.579 15.8966C109.326 15.4373 109.199 14.9115 109.199 14.3192C109.199 13.4125 109.464 12.6752 109.995 12.107C110.525 11.5389 111.272 11.2548 112.236 11.2548C112.911 11.2548 113.484 11.3818 113.954 11.6356C114.424 11.8774 114.786 12.2279 115.039 12.6873C115.292 13.1345 115.419 13.6785 115.419 14.3192Z" fill="white"/>
<path d="M105.546 16.8576V18.8159H103.141V16.8576H105.546Z" fill="white"/>
<path d="M99.3742 9.78613H97.3673V18.8159H99.3742V13.79C99.4865 13.5134 99.6432 13.2304 99.8443 12.9411C100.122 12.5422 100.489 12.2037 100.947 11.9257C101.417 11.6477 101.978 11.5087 102.629 11.5087V9.58668C102.11 9.58668 101.658 9.68338 101.273 9.87679C100.899 10.0702 100.58 10.324 100.314 10.6383C100.061 10.9405 99.8563 11.2548 99.6997 11.5812C99.555 11.9076 99.4465 12.2098 99.3742 12.4878V9.78613Z" fill="white"/>
<path fill-rule="evenodd" clip-rule="evenodd" d="M89.3395 19.0154C88.5199 19.0154 87.7665 18.8159 87.0795 18.417C86.4045 18.0181 85.8621 17.4681 85.4523 16.767C85.0545 16.0538 84.8556 15.2378 84.8556 14.3192C84.8556 13.3763 85.0606 12.5543 85.4704 11.8532C85.8802 11.14 86.4346 10.5839 87.1337 10.185C87.8328 9.78613 88.6163 9.58668 89.4841 9.58668C90.4484 9.58668 91.2138 9.79822 91.7803 10.2213C92.3468 10.6444 92.7506 11.2125 92.9917 11.9257C93.046 12.0865 93.0942 12.2515 93.1363 12.4209V9.78613H95.1613V18.8159H93.281L93.2448 18.4714C93.2207 18.2417 93.1966 17.9637 93.1725 17.6373C93.1484 17.2989 93.1363 16.9785 93.1363 16.6763V15.8966C92.9917 16.4406 92.7626 16.9483 92.4493 17.4197C92.1479 17.8912 91.7381 18.278 91.2198 18.5802C90.7136 18.8703 90.0868 19.0154 89.3395 19.0154ZM92.7566 12.6873C93.0098 13.1345 93.1363 13.6785 93.1363 14.3192C93.1363 14.8994 93.0098 15.4192 92.7566 15.8785C92.5156 16.3379 92.154 16.7005 91.6718 16.9664C91.2017 17.2203 90.6292 17.3472 89.9542 17.3472C89.3636 17.3472 88.8393 17.2203 88.3813 16.9664C87.9232 16.7126 87.5616 16.356 87.2965 15.8966C87.0433 15.4373 86.9168 14.9115 86.9168 14.3192C86.9168 13.4125 87.1819 12.6752 87.7123 12.107C88.2426 11.5389 88.9899 11.2548 89.9542 11.2548C90.6292 11.2548 91.2017 11.3818 91.6718 11.6356C92.1419 11.8774 92.5035 12.2279 92.7566 12.6873Z" fill="white"/>
<path d="M79.6941 9.78613H77.5245V11.4361H79.6941V18.8159H81.719V11.4361H83.8886V9.78613H81.719V7.35643H79.6941V9.78613Z" fill="white"/>
<path fill-rule="evenodd" clip-rule="evenodd" d="M70.1294 19.0154C69.3098 19.0154 68.5565 18.8159 67.8694 18.417C67.1944 18.0181 66.652 17.4681 66.2422 16.767C65.8445 16.0538 65.6456 15.2378 65.6456 14.3192C65.6456 13.3763 65.8505 12.5543 66.2603 11.8532C66.6701 11.14 67.2246 10.5839 67.9237 10.185C68.6228 9.78613 69.4062 9.58668 70.2741 9.58668C71.2383 9.58668 72.0037 9.79822 72.5702 10.2213C73.1367 10.6444 73.5405 11.2125 73.7816 11.9257C73.8359 12.0865 73.8841 12.2515 73.9262 12.4209V9.78613H75.9512V18.8159H74.0709L74.0347 18.4714C74.0106 18.2417 73.9865 17.9637 73.9624 17.6373C73.9383 17.2989 73.9262 16.9785 73.9262 16.6763V15.8966C73.7816 16.4406 73.5526 16.9483 73.2392 17.4197C72.9379 17.8912 72.5281 18.278 72.0098 18.5802C71.5035 18.8703 70.8767 19.0154 70.1294 19.0154ZM73.5466 15.8785C73.7997 15.4192 73.9262 14.8994 73.9262 14.3192C73.9262 13.6785 73.7997 13.1345 73.5466 12.6873C73.2934 12.2279 72.9318 11.8774 72.4618 11.6356C71.9917 11.3818 71.4191 11.2548 70.7441 11.2548C69.7799 11.2548 69.0326 11.5389 68.5022 12.107C67.9719 12.6752 67.7067 13.4125 67.7067 14.3192C67.7067 14.9115 67.8333 15.4373 68.0864 15.8966C68.3516 16.356 68.7132 16.7126 69.1712 16.9664C69.6292 17.2203 70.1535 17.3472 70.7441 17.3472C71.4191 17.3472 71.9917 17.2203 72.4618 16.9664C72.9439 16.7005 73.3055 16.3379 73.5466 15.8785Z" fill="white"/>
<path d="M60.0804 16.5094L62.8324 9.78613H65.0201L61.0425 18.8159H59.126L55.2026 9.78613H57.4084L60.0804 16.5094Z" fill="white"/>
<path fill-rule="evenodd" clip-rule="evenodd" d="M52.5553 15.8422H54.4899C54.3935 16.4587 54.1524 17.0087 53.7667 17.4923C53.393 17.9637 52.8808 18.3384 52.2299 18.6165C51.579 18.8824 50.8016 19.0154 49.8976 19.0154C48.873 19.0154 47.957 18.828 47.1494 18.4533C46.3418 18.0665 45.709 17.5225 45.251 16.8214C44.7929 16.1203 44.5639 15.2862 44.5639 14.3192C44.5639 13.3642 44.7869 12.5301 45.2329 11.8169C45.6789 11.1037 46.2936 10.5537 47.0771 10.1669C47.8726 9.78009 48.7886 9.58668 49.8252 9.58668C50.898 9.58668 51.7899 9.78009 52.5011 10.1669C53.2243 10.5416 53.7607 11.1098 54.1102 11.8713C54.4598 12.6208 54.6044 13.5697 54.5441 14.7181H46.607C46.6673 15.2258 46.83 15.6851 47.0951 16.0961C47.3724 16.495 47.746 16.8093 48.2161 17.039C48.6862 17.2565 49.2346 17.3653 49.8614 17.3653C50.5605 17.3653 51.1451 17.2263 51.6152 16.9483C52.0973 16.6703 52.4107 16.3016 52.5553 15.8422ZM49.771 11.2186C48.9514 11.2186 48.2764 11.4241 47.746 11.8351C47.2157 12.234 46.8722 12.7477 46.7155 13.3763H52.5192C52.471 12.6994 52.1997 12.1735 51.7056 11.7988C51.2114 11.412 50.5665 11.2186 49.771 11.2186Z" fill="white"/>
<path fill-rule="evenodd" clip-rule="evenodd" d="M34.7462 18.417C35.4332 18.8159 36.1866 19.0154 37.0062 19.0154C37.7535 19.0154 38.3803 18.8703 38.8865 18.5802C39.4048 18.278 39.8146 17.8912 40.116 17.4197C40.4293 16.9483 40.6584 16.4406 40.803 15.8966V16.6763C40.803 16.9785 40.815 17.2989 40.8392 17.6373C40.8633 17.9637 40.8874 18.2417 40.9115 18.4714L40.9476 18.8159H42.828V9.78613H40.803V12.4209C40.7609 12.2515 40.7127 12.0865 40.6584 11.9257C40.4173 11.2125 40.0135 10.6444 39.447 10.2213C38.8805 9.79822 38.1151 9.58668 37.1508 9.58668C36.283 9.58668 35.4995 9.78613 34.8004 10.185C34.1013 10.5839 33.5469 11.14 33.137 11.8532C32.7272 12.5543 32.5223 13.3763 32.5223 14.3192C32.5223 15.2378 32.7212 16.0538 33.119 16.767C33.5288 17.4681 34.0712 18.0181 34.7462 18.417ZM40.803 14.3192C40.803 14.8994 40.6764 15.4192 40.4233 15.8785C40.1822 16.3379 39.8206 16.7005 39.3385 16.9664C38.8684 17.2203 38.2959 17.3472 37.6209 17.3472C37.0303 17.3472 36.506 17.2203 36.0479 16.9664C35.5899 16.7126 35.2283 16.356 34.9631 15.8966C34.71 15.4373 34.5835 14.9115 34.5835 14.3192C34.5835 13.4125 34.8486 12.6752 35.379 12.107C35.9093 11.5389 36.6566 11.2548 37.6209 11.2548C38.2959 11.2548 38.8684 11.3818 39.3385 11.6356C39.8086 11.8774 40.1702 12.2279 40.4233 12.6873C40.6764 13.1345 40.803 13.6785 40.803 14.3192Z" fill="white"/>
</svg>
