<svg width="18" height="18" viewBox="0 0 18 18" fill="none" xmlns="http://www.w3.org/2000/svg">
<path d="M7.92342 15.7451L7.92288 15.7448L4.06014 13.5108C3.24966 12.9649 2.94858 12.723 2.7989 12.4625C2.65707 12.2157 2.62256 11.9002 2.62256 11.0326V6.96008C2.62256 6.0921 2.65702 5.77793 2.79594 5.53436C2.94197 5.27834 3.23484 5.04276 4.03038 4.50426L7.92954 2.25589C7.92959 2.25586 7.92963 2.25584 7.92968 2.25581C8.20915 2.09494 8.59484 2.00195 9.00381 2.00195C9.41264 2.00195 9.79822 2.09488 10.0777 2.25566C10.0778 2.25573 10.0779 2.25581 10.0781 2.25589L13.94 4.48937C14.7515 5.03592 15.0522 5.27577 15.2017 5.53478C15.3429 5.7793 15.3776 6.09211 15.3776 6.96008V11.0401C15.3776 11.9081 15.3431 12.2222 15.2042 12.4658C15.0581 12.7218 14.7653 12.9574 13.9697 13.4959L10.0703 15.7444L10.0703 15.7444L10.0654 15.7473C9.79398 15.9079 9.40793 16.0001 9.00006 16.0001C8.59338 16.0001 8.205 15.9084 7.92342 15.7451ZM6.06256 9.00008C6.06256 10.6187 7.38142 11.9376 9.00006 11.9376C10.6187 11.9376 11.9376 10.6187 11.9376 9.00008C11.9376 7.38143 10.6187 6.06258 9.00006 6.06258C7.38142 6.06258 6.06256 7.38143 6.06256 9.00008Z" stroke="currentColor"/>
</svg>
