<svg width="16" height="16" viewBox="0 0 16 16" fill="none" xmlns="http://www.w3.org/2000/svg">
<path d="M6.66667 8.33325L5.33333 9.99992L6.66667 11.6666M9.33333 8.33325L10.6667 9.99992L9.33333 11.6666M9.33333 1.33325V3.99992C9.33333 4.35354 9.47381 4.69268 9.72386 4.94273C9.97391 5.19278 10.313 5.33325 10.6667 5.33325H13.3333M10 1.33325H4C3.64638 1.33325 3.30724 1.47373 3.05719 1.72378C2.80714 1.97382 2.66667 2.31296 2.66667 2.66659V13.3333C2.66667 13.6869 2.80714 14.026 3.05719 14.2761C3.30724 14.5261 3.64638 14.6666 4 14.6666H12C12.3536 14.6666 12.6928 14.5261 12.9428 14.2761C13.1929 14.026 13.3333 13.6869 13.3333 13.3333V4.66659L10 1.33325Z" stroke="#F4F4F5" stroke-linecap="round" stroke-linejoin="round"/>
</svg>
