<svg width="26" height="25" viewBox="0 0 26 25" fill="none" xmlns="http://www.w3.org/2000/svg">
<g id="aevatar_ai_logo">
<path d="M11.4325 9.82005H9.4965V2.18043H6.86288V7.50981H1.95554V9.8227H0V5.41357H4.72504V0.0391342C4.77629 0.0351843 4.8234 0.0307256 4.86775 0.0265286C4.9573 0.0180538 5.03558 0.0106454 5.11386 0.0106454C5.75502 0.00957371 6.3961 0.00926479 7.03715 0.00895588C8.37758 0.00830997 9.71789 0.00766411 11.0585 4.49712e-05C11.3518 -0.00194262 11.4601 0.0609976 11.4588 0.379674C11.4486 2.67436 11.4492 4.96873 11.4498 7.26323C11.45 8.00085 11.4502 8.7385 11.45 9.47619C11.45 9.54744 11.4453 9.61875 11.4401 9.6962C11.4375 9.73539 11.4348 9.77688 11.4325 9.82005Z" fill="white"/>
<path d="M15.5131 13.8655V11.9469H23.6562V7.52845H18.7481V2.17522H16.1529V9.81882H14.1866V0.0339249H20.8618V5.38782H25.6453V19.7634H20.8611V25H14.1933V15.5484H16.1266V22.8905H18.734V17.7168H23.6488V13.8649L15.5131 13.8655Z" fill="white"/>
<path d="M0.00941206 11.9495H10.0118V13.8536H1.97908V17.697H6.8353V22.8846H9.4743V15.5404H11.4218V24.9907H4.76069V19.7819H0.00941206V11.9495Z" fill="white"/>
<path d="M11.4608 13.8456H14.0641V11.3161H11.4608V13.8456Z" fill="white"/>
</g>
</svg>
