<svg width="20" height="21" viewBox="0 0 20 21" fill="none" xmlns="http://www.w3.org/2000/svg">
<path fill-rule="evenodd" clip-rule="evenodd" d="M13.4361 6.84453C13.4361 8.69207 11.9382 10.1891 10.0916 10.1891C8.24407 10.1891 6.74609 8.69207 6.74609 6.84453C6.74609 4.99699 8.24407 3.5 10.0916 3.5C11.9382 3.5 13.4361 4.99699 13.4361 6.84453Z" stroke="currentColor" stroke-linecap="square"/>
<path d="M10.1176 12.6333C12.5818 12.627 14.677 13.7585 15.4472 16.194C13.8948 17.1403 12.0676 17.5048 10.1176 17.5C8.16763 17.5048 6.34041 17.1403 4.78809 16.194C5.55912 13.7558 7.65081 12.627 10.1176 12.6333Z" stroke="currentColor" stroke-linecap="square"/>
<path d="M5.73633 11.9419C4.00871 11.9375 2.53976 12.7307 1.99982 14.4383C2.58916 14.7975 3.23503 15.0372 3.92047 15.1809" stroke="currentColor" stroke-linecap="square"/>
<path d="M6.65457 5.71834C5.45916 5.22131 4.08647 5.78721 3.58917 6.98326C3.09187 8.17931 3.65868 9.55163 4.85409 10.0487C5.84094 10.459 6.94805 10.1455 7.58447 9.35146" stroke="currentColor" stroke-linecap="square"/>
<path d="M14.5283 11.9419C16.2559 11.9375 17.7249 12.7307 18.2648 14.4383C17.6755 14.7975 17.0296 15.0372 16.3442 15.1809" stroke="currentColor" stroke-linecap="square"/>
<path d="M12.6583 9.32306C13.4533 10.3457 14.9266 10.5298 15.9493 9.73488C16.9714 8.94035 17.1565 7.46716 16.3615 6.44448C15.6525 5.53238 14.4039 5.28732 13.4171 5.80864" stroke="currentColor" stroke-linecap="square"/>
</svg>
