<svg width="14" height="14" viewBox="0 0 14 14" fill="none" xmlns="http://www.w3.org/2000/svg">
<path d="M6.95345 13.2712C3.50012 13.2712 0.682617 10.4595 0.682617 7.00033C0.682617 3.54116 3.50012 0.729492 6.95345 0.729492C10.4068 0.729492 13.2243 3.54116 13.2243 7.00033C13.2243 10.4595 10.4126 13.2712 6.95345 13.2712ZM6.95345 1.60449C3.97845 1.60449 1.55762 4.02533 1.55762 7.00033C1.55762 9.97533 3.97845 12.3962 6.95345 12.3962C9.92845 12.3962 12.3493 9.97533 12.3493 7.00033C12.3493 4.02533 9.92845 1.60449 6.95345 1.60449Z" fill="#606060"/>
<path d="M9.28678 7.4375H4.62012C4.38095 7.4375 4.18262 7.23917 4.18262 7C4.18262 6.76083 4.38095 6.5625 4.62012 6.5625H9.28678C9.52595 6.5625 9.72428 6.76083 9.72428 7C9.72428 7.23917 9.53178 7.4375 9.28678 7.4375Z" fill="#606060"/>
</svg>
