<svg width="42" height="40" viewBox="0 0 42 40" fill="none" xmlns="http://www.w3.org/2000/svg">
<g opacity="0.4">
<path d="M1.13815 20.6188C1.48328 20.6188 1.77054 20.339 1.77967 19.994C1.87521 15.8252 3.37164 11.7731 6.02772 8.4894C6.24726 8.21691 6.20884 7.82393 5.94158 7.61168C5.6746 7.39943 5.28017 7.44852 5.06062 7.72101C2.22745 11.224 0.631499 15.5471 0.529677 19.9939C0.525293 20.1596 0.586934 20.3185 0.701019 20.4357C0.815105 20.5528 0.972402 20.6186 1.13814 20.6186L1.13815 20.6188Z" fill="white"/>
<path d="M10.1959 4.50041C10.3196 4.50013 10.4414 4.46303 10.5459 4.39414C13.6697 2.3489 17.3041 1.25449 20.994 1.24785C24.6833 1.24115 28.264 2.32277 31.2873 4.3568C31.5693 4.53028 31.9442 4.44716 32.1369 4.16798C32.3298 3.8888 32.2716 3.51311 32.0054 3.31647C28.7802 1.14657 24.9603 -0.00696487 21.0247 3.26351e-05C17.089 0.00728432 13.2123 1.17506 9.87958 3.35724C9.64757 3.51036 9.53877 3.79429 9.61162 4.05702C9.68447 4.31974 9.92161 4.49964 10.1961 4.50047L10.1959 4.50041Z" fill="white"/>
<path d="M39.8882 20.6193C40.2334 20.6193 40.5206 20.3396 40.5297 19.9945C40.6092 17.3182 40.1462 14.6675 39.1685 12.2027C38.1907 9.7375 36.7185 7.50876 34.8408 5.65066C34.5952 5.40996 34.1954 5.41888 33.948 5.67074C33.7005 5.92258 33.6991 6.32198 33.9447 6.56266C35.7037 8.30274 37.0828 10.3895 37.9997 12.6977C38.9165 15.0059 39.352 17.4879 39.2798 19.9948C39.2754 20.1604 39.337 20.3194 39.4511 20.4366C39.5652 20.5537 39.7225 20.6195 39.8882 20.6195L39.8882 20.6193Z" fill="white"/>
<path d="M8.87971 36.4189C9.12244 36.4192 9.34713 36.2792 9.45589 36.0597C9.56494 35.8399 9.5386 35.5805 9.38812 35.3942C7.93277 33.592 6.90561 30.9616 6.33534 27.5845C6.2779 27.2457 5.95508 27.0245 5.61406 27.0909C5.27329 27.1575 5.04362 27.4861 5.10105 27.8249C5.70595 31.4203 6.80631 34.238 8.40443 36.203L8.40415 36.2032C8.52128 36.3424 8.69524 36.4213 8.87974 36.4188L8.87971 36.4189Z" fill="white"/>
<path d="M5.21367 23.0836L5.24799 23.0836C5.59278 23.0652 5.86478 22.7715 5.85602 22.4276C5.82651 21.2969 5.84917 20.441 5.86008 20.0284C5.93528 17.2185 6.81274 14.4673 8.38939 12.0995C9.96567 9.73187 12.1755 7.84621 14.7575 6.66533C14.9174 6.60118 15.046 6.47511 15.113 6.31642C15.1802 6.15772 15.1802 5.98006 15.1129 5.82499C15.0455 5.66992 14.917 5.55083 14.7569 5.49532C14.5968 5.43982 14.4193 5.45293 14.2657 5.5313C11.4683 6.80843 9.07309 8.84803 7.36216 11.4103C5.65123 13.9727 4.69578 16.9508 4.60796 19.994C4.59614 20.4408 4.57283 21.3216 4.60433 22.493C4.61369 22.8246 4.88138 23.084 5.2137 23.0834L5.21367 23.0836Z" fill="white"/>
<path d="M37.8742 27.2476C38.1504 27.2476 38.3985 27.0666 38.4847 26.8025C38.5709 26.5381 38.4747 26.253 38.2482 26.1013C36.5381 24.955 36.3879 22.2374 36.4472 19.9975L36.4474 19.9975C36.5549 15.7782 34.9837 11.733 32.0783 8.74921C29.1729 5.76549 25.1708 4.08703 20.9498 4.08203C20.6047 4.08203 20.3174 4.36178 20.3083 4.70678C20.2992 5.05178 20.5716 5.33153 20.9168 5.33153C24.8061 5.33571 28.4942 6.88168 31.1714 9.63056C33.8492 12.3794 35.298 16.1064 35.2001 19.9942C35.1326 22.5462 35.3374 25.6668 37.5361 27.1413C37.635 27.2088 37.7523 27.2459 37.8737 27.2473L37.8742 27.2476Z" fill="white"/>
<path d="M14.8592 39.0743C15.1098 39.0732 15.3395 38.9229 15.4427 38.6922C15.5462 38.4615 15.5036 38.1952 15.3343 38.0153C10.364 32.761 9.82076 24.4737 9.93929 19.9948C10.0062 17.4994 10.9526 15.0844 12.6114 13.1758C14.2701 11.2673 16.535 9.98796 19.0062 9.56313C21.4775 9.13864 23.9964 9.59604 26.1184 10.8547C26.409 10.9956 26.7649 10.8868 26.9361 10.6048C27.107 10.3226 27.0357 9.96197 26.7719 9.77704C24.3995 8.37161 21.5843 7.86153 18.8229 8.33677C16.0615 8.81201 13.5307 10.2423 11.6768 12.3748C9.82297 14.5076 8.76493 17.206 8.6892 19.9945C8.56587 24.655 9.14621 33.3113 14.4175 38.8804C14.5309 39.0029 14.6904 39.0726 14.8591 39.0743L14.8592 39.0743Z" fill="white"/>
<path d="M31.7288 20.6188C32.0739 20.6188 32.3612 20.3391 32.3703 19.9941C32.4394 17.2471 31.5533 14.5867 29.8634 12.4657C29.6472 12.2108 29.2624 12.1795 28.9958 12.3954C28.7292 12.6113 28.6777 12.9959 28.8797 13.2623C30.39 15.1591 31.1819 17.5379 31.1203 19.9939C31.1159 20.1596 31.1775 20.3185 31.2916 20.4357C31.4057 20.5528 31.563 20.6186 31.7287 20.6186L31.7288 20.6188Z" fill="white"/>
<path d="M36.3044 31.4367C36.619 31.4406 36.8938 31.2102 36.9459 30.8984C36.9976 30.5869 36.8104 30.2915 36.5088 30.2089C33.8813 29.481 32.9345 25.6982 32.6049 23.5085C32.5802 23.3454 32.4914 23.2003 32.3578 23.1055C32.2244 23.0104 32.0574 22.9736 31.8931 23.0026C31.5517 23.0628 31.3166 23.3872 31.3678 23.7272C31.7428 26.2074 32.8604 30.5026 36.1456 31.4147C36.1971 31.429 36.2505 31.4362 36.3044 31.4368L36.3044 31.4367Z" fill="white"/>
<path d="M20.6596 39.9861C20.9299 39.9867 21.1742 39.8135 21.2655 39.5569C21.3571 39.3006 21.2748 39.0186 21.0614 38.8585C15.7611 34.8537 14.3185 28.1943 14.0478 23.3148C14.0385 23.1491 13.9636 22.9955 13.8395 22.8881C13.7154 22.7804 13.5525 22.7277 13.3864 22.7414C13.0405 22.7698 12.7758 23.0727 12.7951 23.4177C13.0841 28.5532 14.6138 35.5814 20.2912 39.8639C20.3968 39.9434 20.5262 39.9861 20.6599 39.9858L20.6596 39.9861Z" fill="white"/>
<path d="M33.6382 34.5289C33.9825 34.5599 34.2942 34.3052 34.3343 33.9602C34.3747 33.6152 34.128 33.3104 33.7837 33.2794C28.2514 32.2581 28.2407 22.034 28.2947 19.9913C28.3594 17.6222 27.3378 15.3823 25.5213 13.9089C23.7046 12.4357 21.2916 11.8904 18.9696 12.4285C16.6474 12.9665 14.6705 14.5289 13.6016 16.6706C13.455 16.9802 13.5793 17.3436 13.8818 17.4895C14.184 17.6354 14.5542 17.5104 14.7154 17.2081C15.6128 15.4117 17.2711 14.1016 19.219 13.6507C21.1668 13.1997 23.1906 13.6573 24.7143 14.8929C26.2382 16.1287 27.0953 18.0074 27.0416 19.9943C26.959 23.118 27.1823 33.3425 33.5324 34.5098C33.567 34.5193 33.6023 34.5255 33.6382 34.5288L33.6382 34.5289Z" fill="white"/>
<path d="M26.1953 38.9927C26.4927 38.9939 26.755 38.7852 26.8226 38.494C26.8903 38.2029 26.7444 37.9097 26.474 37.7934C24.2587 36.8533 22.4614 35.1622 21.3911 33.0108C21.2333 32.7082 20.8565 32.5969 20.5491 32.7626C20.242 32.9283 20.1207 33.3078 20.2784 33.6107C21.4768 36.0124 23.4882 37.8984 25.9653 38.9429C26.0376 38.9741 26.1159 38.9911 26.1953 38.9927Z" fill="white"/>
<path d="M19.3653 30.5649C19.5796 30.5666 19.7825 30.4584 19.903 30.2785C20.0239 30.0986 20.0455 29.8719 19.9608 29.6778C18.6866 26.6266 18.0529 23.3321 18.0982 19.9945C18.1212 19.1252 18.6065 18.3219 19.3713 17.8871C20.1359 17.4526 21.0639 17.4526 21.8057 17.8871C22.5473 18.3219 22.99 19.1252 22.967 19.9945C22.9579 20.3395 23.2303 20.6193 23.5755 20.6193C23.9206 20.6193 24.2079 20.3395 24.217 19.9945C24.2518 18.6786 23.5817 17.4629 22.4593 16.805C21.3367 16.147 19.9321 16.147 18.775 16.805C17.6175 17.4629 16.883 18.6786 16.8482 19.9945C16.8007 23.5101 17.4681 26.98 18.8096 30.1933C18.903 30.4172 19.1204 30.5628 19.3653 30.565L19.3653 30.5649Z" fill="white"/>
<path d="M30.7725 36.7844C31.1174 36.793 31.4115 36.5203 31.4292 36.1753C31.447 35.8303 31.1817 35.5435 30.8368 35.5349C26.6609 35.3319 25.0961 29.9903 24.5207 25.5204C24.4763 25.1754 24.1594 24.9389 23.8129 24.9924C23.4661 25.046 23.2212 25.3689 23.2657 25.7139C24.1758 32.7641 26.7559 36.5938 30.7254 36.7873L30.7725 36.7844Z" fill="white"/>
<path d="M2.2641 27.6439C2.47057 27.6437 2.66636 27.5416 2.78723 27.3709C2.90809 27.2002 2.93811 26.9832 2.86786 26.7911C2.08257 24.6242 1.71337 22.3188 1.77904 19.9939C1.78817 19.6489 1.51572 19.3691 1.17058 19.3691C0.825442 19.3691 0.538186 19.6489 0.529055 19.9939C0.459857 22.4717 0.853547 24.9282 1.69054 27.2381C1.77505 27.4819 2.00375 27.6436 2.26405 27.6442L2.2641 27.6439Z" fill="white"/>
</g>
</svg>
