<svg width="15" height="15" viewBox="0 0 15 15" fill="none" xmlns="http://www.w3.org/2000/svg">
<path d="M7.5 8.59375C7.24375 8.59375 7.03125 8.38125 7.03125 8.125V4.84375C7.03125 4.5875 7.24375 4.375 7.5 4.375C7.75625 4.375 7.96875 4.5875 7.96875 4.84375V8.125C7.96875 8.38125 7.75625 8.59375 7.5 8.59375Z" fill="#606060"/>
<path d="M7.5 10.7813C7.33125 10.7813 7.17499 10.7188 7.05624 10.6C6.99999 10.5375 6.95625 10.4688 6.91875 10.3938C6.8875 10.3188 6.875 10.2375 6.875 10.1563C6.875 9.99376 6.94374 9.83125 7.05624 9.7125C7.28749 9.48125 7.71251 9.48125 7.94376 9.7125C8.05626 9.83125 8.125 9.99376 8.125 10.1563C8.125 10.2375 8.10624 10.3188 8.07499 10.3938C8.04374 10.4688 8.00001 10.5375 7.94376 10.6C7.82501 10.7188 7.66875 10.7813 7.5 10.7813Z" fill="#606060"/>
<path d="M7.50011 14.2189C7.08136 14.2189 6.65636 14.1127 6.28136 13.8939L2.56886 11.7502C1.81886 11.3127 1.3501 10.5064 1.3501 9.63767V5.36269C1.3501 4.49394 1.81886 3.68769 2.56886 3.25019L6.28136 1.10645C7.03136 0.668945 7.96262 0.668945 8.71887 1.10645L12.4314 3.25019C13.1814 3.68769 13.6501 4.49394 13.6501 5.36269V9.63767C13.6501 10.5064 13.1814 11.3127 12.4314 11.7502L8.71887 13.8939C8.34387 14.1127 7.91886 14.2189 7.50011 14.2189ZM7.50011 1.71893C7.24386 1.71893 6.98136 1.78769 6.75011 1.91894L3.03761 4.06268C2.57511 4.33143 2.2876 4.82519 2.2876 5.36269V9.63767C2.2876 10.1689 2.57511 10.6689 3.03761 10.9377L6.75011 13.0814C7.21261 13.3502 7.78762 13.3502 8.24387 13.0814L11.9564 10.9377C12.4189 10.6689 12.7064 10.1752 12.7064 9.63767V5.36269C12.7064 4.83144 12.4189 4.33143 11.9564 4.06268L8.24387 1.91894C8.01887 1.78769 7.75636 1.71893 7.50011 1.71893Z" fill="#606060"/>
</svg>
